<svg width="20" height="20" viewBox="0 0 20 20" fill="none" xmlns="http://www.w3.org/2000/svg">
<path d="M7.7998 2C8.57023 2 9.31129 2.29674 9.86914 2.82812L11.2041 4.09961C11.3936 4.28016 11.6465 4.37876 11.9082 4.375L14.9561 4.33008C16.6299 4.30556 17.9999 5.65608 18 7.33008V15C18 16.6569 16.6569 18 15 18H5C3.34315 18 2 16.6569 2 15V5C2 3.34315 3.34315 2 5 2H7.7998ZM5 8.25C4.58579 8.25 4.25 8.58579 4.25 9C4.25 9.41421 4.58579 9.75 5 9.75H15C15.4142 9.75 15.75 9.41421 15.75 9C15.75 8.58579 15.4142 8.25 15 8.25H5Z" fill="white"/>
</svg>
